<?xml version="1.0" encoding="utf-8" ?>
<svg baseProfile="tiny" height="114.0" version="1.2" width="204.0" xmlns="http://www.w3.org/2000/svg" xmlns:ev="http://www.w3.org/2001/xml-events" xmlns:xlink="http://www.w3.org/1999/xlink"><defs /><polygon fill="lightgray" points="77.0,2.0 77.0,102.0 127.0,102.0 127.0,2.0" stroke="black" stroke-width="1" /><polygon fill="lightgray" points="77.0,2.0 47.0,2.0000000000000018 47.00000000000001,102.0 77.0,102.0" stroke="black" stroke-width="1" /><polygon fill="lightgray" points="47.0,2.0000000000000018 27.0,2.000000000000003 27.000000000000007,102.0 47.00000000000001,102.0" stroke="black" stroke-width="1" /><polygon fill="lightgray" points="27.0,2.000000000000003 17.0,2.0000000000000036 17.000000000000007,102.0 27.000000000000007,102.0" stroke="black" stroke-width="1" /><polygon fill="lightgray" points="17.0,2.0000000000000036 2.0,2.0000000000000044 2.0,102.0 17.000000000000007,102.0" stroke="black" stroke-width="1" /><polygon fill="lightgray" points="32.00000000000001,102.0 32.00000000000001,112.0 42.00000000000001,112.0 42.00000000000001,102.0" stroke="black" stroke-width="1" /><polygon fill="lightgray" points="52.00000000000001,102.0 49.32050807568878,112.0 56.82050807568878,112.0 59.50000000000001,102.0" stroke="black" stroke-width="1" /><polygon fill="lightgray" points="64.5,102.0 67.17949192431124,112.0 74.67949192431124,112.0 72.0,102.0" stroke="black" stroke-width="1" /><polygon fill="lightgray" points="127.0,102.0 157.0,102.0 157.0,2.0 126.99999999999997,2.0" stroke="black" stroke-width="1" /><polygon fill="lightgray" points="157.0,102.0 177.0,102.0 177.0,2.0 157.0,2.0" stroke="black" stroke-width="1" /><polygon fill="lightgray" points="177.0,102.0 187.0,102.0 187.0,2.0 177.0,2.0" stroke="black" stroke-width="1" /><polygon fill="lightgray" points="187.0,102.0 202.0,102.0 202.0,2.0 187.0,2.0" stroke="black" stroke-width="1" /><polygon fill="lightgray" points="162.0,102.0 162.0,112.0 172.0,112.0 172.0,102.0" stroke="black" stroke-width="1" /><polygon fill="lightgray" points="132.0,102.0 129.3205080756888,112.0 136.8205080756888,112.0 139.5,102.0" stroke="black" stroke-width="1" /><polygon fill="lightgray" points="144.5,102.0 147.17949192431124,112.0 154.67949192431124,112.0 152.0,102.0" stroke="black" stroke-width="1" /><polygon fill="lightgray" points="82.0,102.0 79.32050807568878,112.0 91.82050807568878,112.0 94.5,102.0" stroke="black" stroke-width="1" /><polygon fill="lightgray" points="109.5,102.0 112.17949192431124,112.0 124.67949192431124,112.0 122.0,102.0" stroke="black" stroke-width="1" /></svg>